<svg width="390" height="80" viewBox="0 0 390 80" fill="none" xmlns="http://www.w3.org/2000/svg">
<path d="M135.598 36.6608C136.049 36.6608 136.424 36.6045 136.725 36.4918C137.038 36.3666 137.276 36.1787 137.439 35.9282C137.602 35.6778 137.683 35.3584 137.683 34.9702C137.683 34.6321 137.595 34.3503 137.42 34.1249C137.257 33.8995 137.019 33.7054 136.706 33.5426C136.406 33.3798 136.049 33.2295 135.635 33.0918C135.222 32.954 134.759 32.8163 134.245 32.6785C133.769 32.5282 133.3 32.3529 132.836 32.1525C132.373 31.9396 131.954 31.6767 131.578 31.3636C131.202 31.038 130.902 30.6372 130.676 30.1614C130.463 29.6855 130.357 29.1032 130.357 28.4144C130.357 27.5753 130.557 26.8678 130.958 26.2917C131.371 25.7031 131.916 25.2586 132.592 24.958C133.281 24.6449 134.026 24.4884 134.828 24.4884C135.516 24.4884 136.124 24.5823 136.65 24.7702C137.176 24.9455 137.633 25.2523 138.021 25.6906C138.422 26.1289 138.754 26.73 139.017 27.4939L138.059 27.3625L138.434 24.6762H139.824V28.2078H138.19C138.04 27.7319 137.814 27.3311 137.514 27.0055C137.226 26.6799 136.888 26.4357 136.499 26.2729C136.124 26.0976 135.704 26.01 135.241 26.01C134.84 26.01 134.496 26.0726 134.208 26.1978C133.932 26.3105 133.719 26.4796 133.569 26.705C133.419 26.9304 133.344 27.1997 133.344 27.5127C133.344 27.8258 133.425 28.0888 133.588 28.3017C133.763 28.5146 133.995 28.6962 134.283 28.8464C134.583 28.9842 134.928 29.1094 135.316 29.2221C135.704 29.3348 136.124 29.4475 136.575 29.5603C137.113 29.7105 137.633 29.8859 138.134 30.0862C138.635 30.2866 139.079 30.5496 139.467 30.8752C139.868 31.1883 140.181 31.5827 140.407 32.0586C140.632 32.522 140.745 33.098 140.745 33.7868C140.745 34.6759 140.544 35.4524 140.144 36.1161C139.755 36.7798 139.198 37.2933 138.472 37.6564C137.746 38.0196 136.881 38.2012 135.88 38.2012C135.153 38.2012 134.458 38.0885 133.794 37.8631C133.143 37.6376 132.555 37.2682 132.029 36.7548C131.515 36.2413 131.108 35.5463 130.808 34.6697L131.86 34.8575L131.484 38.0133H130V33.8244H131.747C131.972 34.413 132.279 34.9201 132.667 35.3459C133.056 35.7717 133.5 36.0973 134.001 36.3227C134.515 36.5481 135.047 36.6608 135.598 36.6608Z" fill="black"/>
<path d="M149.387 31.2133L149.068 31.063L150.777 38.0133H154.064L156.056 30.368C156.118 30.1676 156.2 30.0111 156.3 29.8984C156.4 29.7857 156.519 29.7043 156.657 29.6542C156.794 29.5916 156.938 29.5603 157.089 29.5603H157.108V28.3956H153.482V29.5603H153.52C153.708 29.5603 153.883 29.579 154.046 29.6166C154.221 29.6417 154.359 29.6855 154.459 29.7481C154.572 29.8107 154.628 29.8796 154.628 29.9547L152.862 36.8675L153.482 36.1537L151.472 28.3956H148.748L146.588 36.9238L147.133 36.1724L145.574 29.7293C145.574 29.6792 145.63 29.6479 145.743 29.6354C145.868 29.6103 146.018 29.5916 146.194 29.579C146.382 29.5665 146.576 29.5603 146.776 29.5603H146.795V28.3956H141.253V29.5603H141.272C141.46 29.5603 141.616 29.579 141.742 29.6166C141.867 29.6542 141.973 29.7168 142.061 29.8045C142.161 29.8921 142.23 30.0173 142.268 30.1801L144.353 38.0133H147.621L149.387 31.2133Z" fill="black"/>
<path d="M160.918 33.242C160.918 33.7931 160.968 34.2815 161.069 34.7072C161.181 35.133 161.338 35.4962 161.538 35.7968C161.739 36.0848 162.002 36.3039 162.327 36.4542C162.653 36.592 163.028 36.6608 163.454 36.6608C163.905 36.6608 164.287 36.5794 164.6 36.4166C164.926 36.2413 165.201 36.0222 165.427 35.7592C165.665 35.4837 165.859 35.2082 166.009 34.9327L167.23 35.778C166.98 36.2413 166.66 36.6608 166.272 37.0365C165.884 37.3997 165.414 37.6877 164.863 37.9006C164.325 38.101 163.68 38.2012 162.928 38.2012C161.839 38.2012 160.881 38.0008 160.054 37.6001C159.24 37.1993 158.608 36.6295 158.157 35.8907C157.706 35.1393 157.481 34.2502 157.481 33.2233C157.481 32.2214 157.7 31.3448 158.138 30.5934C158.589 29.842 159.196 29.2597 159.96 28.8464C160.737 28.4207 161.613 28.2078 162.59 28.2078C163.379 28.2078 164.068 28.3267 164.656 28.5647C165.258 28.7901 165.759 29.1345 166.159 29.5978C166.573 30.0612 166.879 30.6435 167.08 31.3448C167.293 32.0336 167.399 32.8413 167.399 33.768H160.543V32.4155H164.619L164.206 32.9791C164.193 32.3404 164.156 31.8144 164.093 31.4011C164.03 30.9754 163.936 30.6372 163.811 30.3868C163.686 30.1363 163.529 29.961 163.342 29.8608C163.154 29.7481 162.928 29.6917 162.665 29.6917C162.402 29.6917 162.164 29.7606 161.951 29.8984C161.751 30.0361 161.57 30.249 161.407 30.5371C161.256 30.8251 161.137 31.1945 161.05 31.6453C160.962 32.0837 160.918 32.6159 160.918 33.242Z" fill="black"/>
<path d="M171.98 33.242C171.98 33.7931 172.03 34.2815 172.13 34.7072C172.243 35.133 172.4 35.4962 172.6 35.7968C172.8 36.0848 173.063 36.3039 173.389 36.4542C173.714 36.592 174.09 36.6608 174.516 36.6608C174.967 36.6608 175.349 36.5794 175.662 36.4166C175.987 36.2413 176.263 36.0222 176.488 35.7592C176.726 35.4837 176.92 35.2082 177.071 34.9327L178.292 35.778C178.041 36.2413 177.722 36.6608 177.334 37.0365C176.945 37.3997 176.476 37.6877 175.925 37.9006C175.386 38.101 174.741 38.2012 173.99 38.2012C172.9 38.2012 171.942 38.0008 171.116 37.6001C170.302 37.1993 169.669 36.6295 169.219 35.8907C168.768 35.1393 168.542 34.2502 168.542 33.2233C168.542 32.2214 168.762 31.3448 169.2 30.5934C169.651 29.842 170.258 29.2597 171.022 28.8464C171.798 28.4207 172.675 28.2078 173.652 28.2078C174.441 28.2078 175.13 28.3267 175.718 28.5647C176.319 28.7901 176.82 29.1345 177.221 29.5978C177.634 30.0612 177.941 30.6435 178.141 31.3448C178.354 32.0336 178.461 32.8413 178.461 33.768H171.604V32.4155H175.681L175.267 32.9791C175.255 32.3404 175.217 31.8144 175.155 31.4011C175.092 30.9754 174.998 30.6372 174.873 30.3868C174.748 30.1363 174.591 29.961 174.403 29.8608C174.215 29.7481 173.99 29.6917 173.727 29.6917C173.464 29.6917 173.226 29.7606 173.013 29.8984C172.813 30.0361 172.631 30.249 172.468 30.5371C172.318 30.8251 172.199 31.1945 172.111 31.6453C172.024 32.0837 171.98 32.6159 171.98 33.242Z" fill="black"/>
<path d="M179.023 29.7669V28.4895H179.079C179.354 28.4895 179.592 28.4707 179.793 28.4332C179.993 28.3831 180.15 28.3017 180.262 28.189C180.375 28.0763 180.431 27.9072 180.431 27.6818L182.423 28.3956H186.18V29.7669H179.023ZM183.738 34.6697C183.738 35.1581 183.788 35.5463 183.888 35.8343C184.001 36.1098 184.157 36.3102 184.357 36.4354C184.558 36.5481 184.808 36.6045 185.109 36.6045C185.347 36.6045 185.572 36.5794 185.785 36.5294C185.998 36.4793 186.161 36.4354 186.273 36.3979V37.8631C186.173 37.9132 186.023 37.9633 185.823 38.0133C185.622 38.0634 185.384 38.1073 185.109 38.1448C184.846 38.1824 184.552 38.2012 184.226 38.2012C183.487 38.2012 182.817 38.0947 182.216 37.8819C181.627 37.669 181.164 37.312 180.826 36.8111C180.488 36.2977 180.319 35.6089 180.319 34.7448V28.7525L180.431 28.621L180.45 25.7845H183.738V34.6697Z" fill="black"/>
<path d="M198.769 24.6762C199.558 24.6762 200.253 24.7514 200.854 24.9017C201.468 25.0519 201.975 25.2711 202.376 25.5591C202.789 25.8346 203.102 26.1728 203.315 26.5735C203.528 26.9742 203.634 27.4251 203.634 27.926C203.634 28.6022 203.453 29.172 203.09 29.6354C202.739 30.0987 202.244 30.4494 201.606 30.6873C200.979 30.9253 200.247 31.063 199.408 31.1006L200.197 30.7061V31.2697L199.558 30.8376C200.472 30.8627 201.274 31.0129 201.962 31.2884C202.664 31.5514 203.209 31.9334 203.597 32.4343C203.985 32.9227 204.179 33.5301 204.179 34.2564C204.179 34.845 204.06 35.371 203.822 35.8343C203.597 36.2977 203.259 36.6922 202.808 37.0178C202.369 37.3434 201.825 37.5938 201.174 37.7691C200.522 37.9319 199.777 38.0133 198.938 38.0133H191.913V36.7548H192.101C192.439 36.7548 192.708 36.7109 192.908 36.6233C193.121 36.5356 193.228 36.354 193.228 36.0785V26.6111C193.228 26.3356 193.121 26.154 192.908 26.0663C192.708 25.9786 192.439 25.9348 192.101 25.9348H191.913V24.6762H198.769ZM196.252 30.368H197.905C198.418 30.368 198.825 30.2803 199.126 30.105C199.439 29.9297 199.664 29.6792 199.802 29.3536C199.94 29.0155 200.009 28.6022 200.009 28.1138C200.009 27.6755 199.934 27.3124 199.783 27.0243C199.633 26.7238 199.408 26.4984 199.107 26.3481C198.807 26.1853 198.431 26.1039 197.98 26.1039H196.853V36.5857H198.112C198.625 36.5857 199.057 36.498 199.408 36.3227C199.771 36.1474 200.04 35.8782 200.216 35.515C200.403 35.1518 200.497 34.6885 200.497 34.1249C200.497 33.6365 200.41 33.217 200.234 32.8664C200.071 32.5032 199.809 32.2277 199.445 32.0398C199.082 31.8395 198.613 31.7393 198.036 31.7393H196.252V30.368Z" fill="black"/>
<path d="M209.017 33.242C209.017 33.7931 209.067 34.2815 209.168 34.7072C209.28 35.133 209.437 35.4962 209.637 35.7968C209.838 36.0848 210.101 36.3039 210.426 36.4542C210.752 36.592 211.127 36.6608 211.553 36.6608C212.004 36.6608 212.386 36.5794 212.699 36.4166C213.025 36.2413 213.3 36.0222 213.526 35.7592C213.764 35.4837 213.958 35.2082 214.108 34.9327L215.329 35.778C215.078 36.2413 214.759 36.6608 214.371 37.0365C213.983 37.3997 213.513 37.6877 212.962 37.9006C212.424 38.101 211.779 38.2012 211.027 38.2012C209.938 38.2012 208.98 38.0008 208.153 37.6001C207.339 37.1993 206.707 36.6295 206.256 35.8907C205.805 35.1393 205.58 34.2502 205.58 33.2233C205.58 32.2214 205.799 31.3448 206.237 30.5934C206.688 29.842 207.295 29.2597 208.059 28.8464C208.836 28.4207 209.712 28.2078 210.689 28.2078C211.478 28.2078 212.167 28.3267 212.755 28.5647C213.357 28.7901 213.857 29.1345 214.258 29.5978C214.671 30.0612 214.978 30.6435 215.179 31.3448C215.392 32.0336 215.498 32.8413 215.498 33.768H208.642V32.4155H212.718L212.305 32.9791C212.292 32.3404 212.255 31.8144 212.192 31.4011C212.129 30.9754 212.035 30.6372 211.91 30.3868C211.785 30.1363 211.628 29.961 211.441 29.8608C211.253 29.7481 211.027 29.6917 210.764 29.6917C210.501 29.6917 210.263 29.7606 210.05 29.8984C209.85 30.0361 209.668 30.249 209.506 30.5371C209.355 30.8251 209.236 31.1945 209.149 31.6453C209.061 32.0837 209.017 32.6159 209.017 33.242Z" fill="black"/>
<path d="M224.119 28.358V31.2884C224.031 31.2509 223.924 31.2258 223.799 31.2133C223.674 31.1883 223.542 31.1695 223.405 31.1569C223.279 31.1444 223.148 31.1382 223.01 31.1382C222.722 31.1382 222.453 31.1695 222.202 31.2321C221.952 31.2822 221.72 31.3698 221.507 31.4951C221.307 31.6078 221.126 31.7643 220.963 31.9647C220.8 32.1651 220.65 32.4093 220.512 32.6973V31.589C220.687 30.9378 220.894 30.368 221.132 29.8796C221.37 29.3787 221.67 28.9905 222.033 28.7149C222.397 28.4269 222.86 28.2829 223.423 28.2829C223.574 28.2829 223.712 28.2892 223.837 28.3017C223.962 28.3142 224.056 28.333 224.119 28.358ZM216.473 38.0133V36.8299H216.492C216.78 36.8299 217.018 36.7923 217.206 36.7172C217.394 36.6421 217.488 36.4918 217.488 36.2664V30.2929C217.488 30.1551 217.456 30.0549 217.394 29.9923C217.331 29.9172 217.237 29.8545 217.112 29.8045C216.987 29.7544 216.824 29.7043 216.623 29.6542L216.473 29.6166V28.3956H220.681V31.4387L220.906 31.2133V36.4918C220.906 36.592 220.975 36.6671 221.113 36.7172C221.263 36.7673 221.432 36.7986 221.62 36.8111C221.808 36.8236 221.977 36.8299 222.127 36.8299H222.278V38.0133H216.473Z" fill="black"/>
<path d="M232.667 28.358V31.2884C232.579 31.2509 232.473 31.2258 232.348 31.2133C232.222 31.1883 232.091 31.1695 231.953 31.1569C231.828 31.1444 231.696 31.1382 231.559 31.1382C231.271 31.1382 231.001 31.1695 230.751 31.2321C230.501 31.2822 230.269 31.3698 230.056 31.4951C229.856 31.6078 229.674 31.7643 229.511 31.9647C229.348 32.1651 229.198 32.4093 229.06 32.6973V31.589C229.236 30.9378 229.442 30.368 229.68 29.8796C229.918 29.3787 230.219 28.9905 230.582 28.7149C230.945 28.4269 231.408 28.2829 231.972 28.2829C232.122 28.2829 232.26 28.2892 232.385 28.3017C232.51 28.3142 232.604 28.333 232.667 28.358ZM225.022 38.0133V36.8299H225.04C225.328 36.8299 225.566 36.7923 225.754 36.7172C225.942 36.6421 226.036 36.4918 226.036 36.2664V30.2929C226.036 30.1551 226.005 30.0549 225.942 29.9923C225.879 29.9172 225.786 29.8545 225.66 29.8045C225.535 29.7544 225.372 29.7043 225.172 29.6542L225.022 29.6166V28.3956H229.229V31.4387L229.455 31.2133V36.4918C229.455 36.592 229.524 36.6671 229.661 36.7172C229.812 36.7673 229.981 36.7986 230.169 36.8111C230.356 36.8236 230.526 36.8299 230.676 36.8299H230.826V38.0133H225.022Z" fill="black"/>
<path d="M236.256 27.0807C235.68 27.0807 235.223 26.9492 234.885 26.6862C234.559 26.4107 234.397 26.0287 234.397 25.5403C234.397 25.0519 234.559 24.6762 234.885 24.4133C235.223 24.1378 235.68 24 236.256 24C236.82 24 237.264 24.1378 237.59 24.4133C237.928 24.6762 238.097 25.0519 238.097 25.5403C238.097 26.0287 237.928 26.4107 237.59 26.6862C237.264 26.9492 236.82 27.0807 236.256 27.0807ZM238.022 28.3956V36.2664C238.022 36.4918 238.116 36.6421 238.304 36.7172C238.492 36.7923 238.73 36.8299 239.018 36.8299H239.036V38.0133H233.57V36.8299H233.589C233.877 36.8299 234.115 36.7923 234.303 36.7172C234.491 36.6421 234.584 36.4918 234.584 36.2664V30.2929C234.584 30.0925 234.516 29.9547 234.378 29.8796C234.253 29.8045 234.033 29.7293 233.72 29.6542L233.57 29.6166V28.3956H238.022Z" fill="black"/>
<path d="M243.376 33.242C243.376 33.7931 243.426 34.2815 243.527 34.7072C243.639 35.133 243.796 35.4962 243.996 35.7968C244.197 36.0848 244.46 36.3039 244.785 36.4542C245.111 36.592 245.486 36.6608 245.912 36.6608C246.363 36.6608 246.745 36.5794 247.058 36.4166C247.384 36.2413 247.659 36.0222 247.885 35.7592C248.123 35.4837 248.317 35.2082 248.467 34.9327L249.688 35.778C249.437 36.2413 249.118 36.6608 248.73 37.0365C248.342 37.3997 247.872 37.6877 247.321 37.9006C246.783 38.101 246.138 38.2012 245.386 38.2012C244.297 38.2012 243.339 38.0008 242.512 37.6001C241.698 37.1993 241.066 36.6295 240.615 35.8907C240.164 35.1393 239.939 34.2502 239.939 33.2233C239.939 32.2214 240.158 31.3448 240.596 30.5934C241.047 29.842 241.654 29.2597 242.418 28.8464C243.195 28.4207 244.071 28.2078 245.048 28.2078C245.837 28.2078 246.526 28.3267 247.114 28.5647C247.716 28.7901 248.216 29.1345 248.617 29.5978C249.03 30.0612 249.337 30.6435 249.538 31.3448C249.751 32.0336 249.857 32.8413 249.857 33.768H243.001V32.4155H247.077L246.664 32.9791C246.651 32.3404 246.614 31.8144 246.551 31.4011C246.488 30.9754 246.394 30.6372 246.269 30.3868C246.144 30.1363 245.987 29.961 245.8 29.8608C245.612 29.7481 245.386 29.6917 245.123 29.6917C244.86 29.6917 244.622 29.7606 244.409 29.8984C244.209 30.0361 244.027 30.249 243.865 30.5371C243.714 30.8251 243.595 31.1945 243.508 31.6453C243.42 32.0837 243.376 32.6159 243.376 33.242Z" fill="black"/>
<path d="M256.562 35.684C256.562 35.4712 256.499 35.3021 256.374 35.1769C256.261 35.0391 256.098 34.9264 255.885 34.8387C255.685 34.7386 255.453 34.6572 255.19 34.5945C254.927 34.5194 254.645 34.438 254.345 34.3503C253.969 34.2502 253.587 34.1374 253.199 34.0122C252.811 33.8745 252.454 33.6991 252.128 33.4862C251.803 33.2608 251.54 32.9728 251.339 32.6222C251.152 32.259 251.058 31.8019 251.058 31.2509C251.058 30.5871 251.233 30.0236 251.584 29.5603C251.947 29.0969 252.441 28.7525 253.068 28.5271C253.706 28.2892 254.451 28.1702 255.303 28.1702C256.004 28.1702 256.605 28.2265 257.106 28.3393C257.607 28.4394 258.014 28.5584 258.327 28.6962C258.64 28.8339 258.859 28.9529 258.985 29.0531V31.0067H256.637V29.3724C256.824 29.3599 256.968 29.3849 257.069 29.4475C257.169 29.4976 257.231 29.5728 257.257 29.673C257.282 29.7606 257.275 29.8545 257.238 29.9547C257.213 30.0549 257.175 30.1551 257.125 30.2553C256.987 30.105 256.831 29.9798 256.655 29.8796C256.48 29.7669 256.28 29.6855 256.054 29.6354C255.841 29.5853 255.597 29.5603 255.322 29.5603C254.858 29.5603 254.508 29.6479 254.27 29.8232C254.032 29.9986 253.913 30.2365 253.913 30.5371C253.913 30.7499 253.975 30.9253 254.101 31.063C254.226 31.2008 254.395 31.3197 254.608 31.4199C254.833 31.5201 255.084 31.6078 255.359 31.6829C255.647 31.7581 255.948 31.8332 256.261 31.9083C256.649 32.021 257.037 32.1463 257.426 32.284C257.826 32.4093 258.189 32.5846 258.515 32.81C258.853 33.0354 259.122 33.3234 259.323 33.6741C259.523 34.0122 259.623 34.4317 259.623 34.9327C259.623 35.634 259.442 36.2288 259.079 36.7172C258.728 37.1931 258.202 37.5625 257.501 37.8255C256.812 38.076 255.96 38.2012 254.946 38.2012C254.27 38.2012 253.656 38.1448 253.105 38.0321C252.567 37.9319 252.097 37.8067 251.696 37.6564C251.308 37.4936 251.001 37.3434 250.776 37.2056V35.0642H253.18V37.2432C252.955 37.1305 252.78 37.0115 252.654 36.8863C252.529 36.7485 252.448 36.617 252.41 36.4918C252.385 36.354 252.391 36.2413 252.429 36.1537C252.479 36.0535 252.56 35.9971 252.673 35.9846C252.848 36.1724 253.049 36.329 253.274 36.4542C253.512 36.5794 253.769 36.6671 254.044 36.7172C254.32 36.7673 254.627 36.7923 254.965 36.7923C255.303 36.7923 255.585 36.7548 255.81 36.6796C256.048 36.6045 256.23 36.4855 256.355 36.3227C256.493 36.1474 256.562 35.9345 256.562 35.684Z" fill="black"/>
<path d="M152.672 50.9385C152.672 51.7874 152.902 52.4812 153.362 53.0198C153.826 53.5584 154.463 53.8277 155.272 53.8277C156.021 53.8277 156.59 53.6262 156.979 53.2231C157.368 52.8165 157.562 52.3635 157.562 51.8641V51.8374H156.599V51.8641C156.599 52.1673 156.494 52.4348 156.284 52.6667C156.073 52.8985 155.736 53.0145 155.272 53.0145C154.73 53.0145 154.331 52.8147 154.074 52.4152C153.817 52.0121 153.689 51.5199 153.689 50.9385V50.7673C153.689 50.1859 153.817 49.6954 154.074 49.2959C154.331 48.8928 154.73 48.6913 155.272 48.6913C155.736 48.6913 156.073 48.8072 156.284 49.0391C156.494 49.2709 156.599 49.5384 156.599 49.8416V49.8684H157.562V49.8416C157.562 49.3423 157.368 48.891 156.979 48.488C156.59 48.0813 156.021 47.878 155.272 47.878C154.463 47.878 153.826 48.1473 153.362 48.6859C152.902 49.2246 152.672 49.9183 152.672 50.7673V50.9385Z" fill="black"/>
<path d="M159.263 50.9385C159.263 51.7874 159.504 52.4812 159.985 53.0198C160.467 53.5584 161.111 53.8277 161.917 53.8277C162.723 53.8277 163.367 53.5584 163.848 53.0198C164.33 52.4812 164.571 51.7874 164.571 50.9385V50.7673C164.571 49.9183 164.33 49.2246 163.848 48.6859C163.367 48.1473 162.723 47.878 161.917 47.878C161.111 47.878 160.467 48.1473 159.985 48.6859C159.504 49.2246 159.263 49.9183 159.263 50.7673V50.9385ZM160.28 50.7673C160.28 50.1859 160.417 49.6954 160.692 49.2959C160.966 48.8928 161.375 48.6913 161.917 48.6913C162.459 48.6913 162.867 48.8928 163.142 49.2959C163.417 49.6954 163.554 50.1859 163.554 50.7673V50.9385C163.554 51.5199 163.417 52.0121 163.142 52.4152C162.867 52.8147 162.459 53.0145 161.917 53.0145C161.375 53.0145 160.966 52.8147 160.692 52.4152C160.417 52.0121 160.28 51.5199 160.28 50.9385V50.7673Z" fill="black"/>
<path d="M166.357 50.9385C166.357 51.7874 166.598 52.4812 167.079 53.0198C167.561 53.5584 168.205 53.8277 169.011 53.8277C169.817 53.8277 170.461 53.5584 170.942 53.0198C171.424 52.4812 171.664 51.7874 171.664 50.9385V50.7673C171.664 49.9183 171.424 49.2246 170.942 48.6859C170.461 48.1473 169.817 47.878 169.011 47.878C168.205 47.878 167.561 48.1473 167.079 48.6859C166.598 49.2246 166.357 49.9183 166.357 50.7673V50.9385ZM167.373 50.7673C167.373 50.1859 167.511 49.6954 167.785 49.2959C168.06 48.8928 168.468 48.6913 169.011 48.6913C169.553 48.6913 169.961 48.8928 170.236 49.2959C170.511 49.6954 170.648 50.1859 170.648 50.7673V50.9385C170.648 51.5199 170.511 52.0121 170.236 52.4152C169.961 52.8147 169.553 53.0145 169.011 53.0145C168.468 53.0145 168.06 52.8147 167.785 52.4152C167.511 52.0121 167.373 51.5199 167.373 50.9385V50.7673Z" fill="black"/>
<path d="M173.788 53.6672H174.783V51.7946L178.32 48.0385H177.191L174.783 50.6282V45.4489H173.788V53.6672ZM177.415 53.6672H178.582L175.842 50.0717L175.222 50.7566L177.415 53.6672Z" fill="black"/>
<path d="M180.213 53.6672H181.208V48.0385H180.213V53.6672ZM180.09 46.3371C180.09 46.5047 180.143 46.6456 180.25 46.7598C180.357 46.8739 180.511 46.931 180.71 46.931C180.91 46.931 181.063 46.8739 181.17 46.7598C181.278 46.6456 181.331 46.5047 181.331 46.3371C181.331 46.1695 181.278 46.0286 181.17 45.9144C181.063 45.8003 180.91 45.7432 180.71 45.7432C180.511 45.7432 180.357 45.8003 180.25 45.9144C180.143 46.0286 180.09 46.1695 180.09 46.3371Z" fill="black"/>
<path d="M183.716 53.6672H184.712V49.6865C184.847 49.4154 185.036 49.1942 185.279 49.023C185.521 48.8518 185.801 48.7662 186.119 48.7662C186.49 48.7662 186.775 48.8643 186.975 49.0605C187.178 49.2531 187.28 49.5741 187.28 50.0236V53.6672H188.275V50.0343C188.275 49.2781 188.106 48.7395 187.767 48.4184C187.431 48.0938 186.98 47.9315 186.413 47.9315C186.056 47.9315 185.73 48.0064 185.434 48.1563C185.141 48.3025 184.894 48.504 184.69 48.7609H184.658L184.615 48.0385H183.716V53.6672Z" fill="black"/>
<path d="M190.553 55.1867C190.825 55.4222 191.156 55.6166 191.549 55.7699C191.941 55.9233 192.369 56 192.833 56C193.582 56 194.19 55.7895 194.657 55.3686C195.125 54.9477 195.358 54.3449 195.358 53.5602V48.0385H194.459L194.416 48.7716H194.384C194.242 48.5397 194.022 48.3417 193.726 48.1777C193.434 48.0136 193.091 47.9315 192.699 47.9315C191.986 47.9315 191.415 48.1991 190.987 48.7341C190.559 49.2691 190.345 49.9469 190.345 50.7673V50.9385C190.345 51.7589 190.559 52.4366 190.987 52.9716C191.415 53.5067 191.986 53.7742 192.699 53.7742C193.091 53.7742 193.425 53.7047 193.7 53.5655C193.978 53.4229 194.199 53.2356 194.363 53.0038V53.5602C194.363 54.0596 194.224 54.4466 193.946 54.7212C193.667 54.9959 193.288 55.1332 192.806 55.1332C192.449 55.1332 192.128 55.0619 191.843 54.9192C191.558 54.7801 191.336 54.6196 191.179 54.4377L190.553 55.1867ZM191.361 50.9385V50.7673C191.361 50.1966 191.486 49.7168 191.736 49.328C191.986 48.9392 192.378 48.7448 192.913 48.7448C193.27 48.7448 193.573 48.8429 193.823 49.0391C194.072 49.2353 194.252 49.4582 194.363 49.7079V51.9979C194.252 52.2476 194.072 52.4705 193.823 52.6667C193.573 52.8629 193.27 52.9609 192.913 52.9609C192.378 52.9609 191.986 52.7666 191.736 52.3778C191.486 51.989 191.361 51.5092 191.361 50.9385Z" fill="black"/>
<path d="M201.007 52.0086V52.0353C201.007 52.5775 201.203 53.0127 201.595 53.3408C201.987 53.6654 202.558 53.8277 203.307 53.8277C204.056 53.8277 204.618 53.6672 204.993 53.3462C205.367 53.0252 205.554 52.615 205.554 52.1156C205.554 51.6162 205.389 51.2328 205.057 50.9652C204.729 50.6977 204.261 50.4926 203.655 50.3499C203.049 50.2073 202.642 50.0735 202.435 49.9487C202.228 49.8238 202.125 49.6544 202.125 49.4404C202.125 49.2263 202.214 49.048 202.392 48.9053C202.574 48.7626 202.861 48.6913 203.254 48.6913C203.646 48.6913 203.935 48.768 204.12 48.9214C204.31 49.0747 204.404 49.2852 204.404 49.5527V49.6009H205.394V49.5741C205.394 49.0533 205.198 48.6414 204.805 48.3382C204.413 48.0314 203.896 47.878 203.254 47.878C202.612 47.878 202.098 48.0314 201.713 48.3382C201.331 48.6449 201.14 49.0302 201.14 49.4939C201.14 49.9576 201.319 50.3196 201.675 50.58C202.032 50.8368 202.514 51.0366 203.12 51.1793C203.726 51.3219 204.12 51.461 204.302 51.5966C204.484 51.7286 204.575 51.9194 204.575 52.1691C204.575 52.4188 204.461 52.6221 204.233 52.779C204.008 52.936 203.7 53.0145 203.307 53.0145C202.915 53.0145 202.599 52.9324 202.36 52.7683C202.121 52.6043 202.002 52.3599 202.002 52.0353V52.0086H201.007Z" fill="black"/>
<path d="M207.314 50.9385C207.314 51.7874 207.544 52.4812 208.004 53.0198C208.468 53.5584 209.104 53.8277 209.914 53.8277C210.663 53.8277 211.232 53.6262 211.621 53.2231C212.01 52.8165 212.204 52.3635 212.204 51.8641V51.8374H211.241V51.8641C211.241 52.1673 211.136 52.4348 210.925 52.6667C210.715 52.8985 210.378 53.0145 209.914 53.0145C209.372 53.0145 208.972 52.8147 208.716 52.4152C208.459 52.0121 208.33 51.5199 208.33 50.9385V50.7673C208.33 50.1859 208.459 49.6954 208.716 49.2959C208.972 48.8928 209.372 48.6913 209.914 48.6913C210.378 48.6913 210.715 48.8072 210.925 49.0391C211.136 49.2709 211.241 49.5384 211.241 49.8416V49.8684H212.204V49.8416C212.204 49.3423 212.01 48.891 211.621 48.488C211.232 48.0813 210.663 47.878 209.914 47.878C209.104 47.878 208.468 48.1473 208.004 48.6859C207.544 49.2246 207.314 49.9183 207.314 50.7673V50.9385Z" fill="black"/>
<path d="M214.242 53.6672H215.237V49.6865C215.373 49.4154 215.562 49.1942 215.804 49.023C216.047 48.8518 216.327 48.7662 216.644 48.7662C217.015 48.7662 217.3 48.8643 217.5 49.0605C217.704 49.2531 217.805 49.5741 217.805 50.0236V53.6672H218.8V50.0343C218.8 49.2781 218.631 48.7395 218.292 48.4184C217.957 48.0938 217.527 47.9315 217.003 47.9315C216.639 47.9315 216.303 48.0047 215.997 48.1509C215.69 48.2971 215.437 48.4915 215.237 48.7341V45.4489H214.242V53.6672Z" fill="black"/>
<path d="M220.87 50.9385C220.87 51.7874 221.111 52.4812 221.592 53.0198C222.074 53.5584 222.718 53.8277 223.524 53.8277C224.33 53.8277 224.974 53.5584 225.455 53.0198C225.937 52.4812 226.178 51.7874 226.178 50.9385V50.7673C226.178 49.9183 225.937 49.2246 225.455 48.6859C224.974 48.1473 224.33 47.878 223.524 47.878C222.718 47.878 222.074 48.1473 221.592 48.6859C221.111 49.2246 220.87 49.9183 220.87 50.7673V50.9385ZM221.887 50.7673C221.887 50.1859 222.024 49.6954 222.299 49.2959C222.573 48.8928 222.982 48.6913 223.524 48.6913C224.066 48.6913 224.475 48.8928 224.749 49.2959C225.024 49.6954 225.161 50.1859 225.161 50.7673V50.9385C225.161 51.5199 225.024 52.0121 224.749 52.4152C224.475 52.8147 224.066 53.0145 223.524 53.0145C222.982 53.0145 222.573 52.8147 222.299 52.4152C222.024 52.0121 221.887 51.5199 221.887 50.9385V50.7673Z" fill="black"/>
<path d="M227.964 50.9385C227.964 51.7874 228.205 52.4812 228.686 53.0198C229.168 53.5584 229.812 53.8277 230.618 53.8277C231.424 53.8277 232.068 53.5584 232.549 53.0198C233.031 52.4812 233.272 51.7874 233.272 50.9385V50.7673C233.272 49.9183 233.031 49.2246 232.549 48.6859C232.068 48.1473 231.424 47.878 230.618 47.878C229.812 47.878 229.168 48.1473 228.686 48.6859C228.205 49.2246 227.964 49.9183 227.964 50.7673V50.9385ZM228.981 50.7673C228.981 50.1859 229.118 49.6954 229.393 49.2959C229.667 48.8928 230.076 48.6913 230.618 48.6913C231.16 48.6913 231.568 48.8928 231.843 49.2959C232.118 49.6954 232.255 50.1859 232.255 50.7673V50.9385C232.255 51.5199 232.118 52.0121 231.843 52.4152C231.568 52.8147 231.16 53.0145 230.618 53.0145C230.076 53.0145 229.667 52.8147 229.393 52.4152C229.118 52.0121 228.981 51.5199 228.981 50.9385V50.7673Z" fill="black"/>
<path d="M235.438 53.6672H236.433V45.4489H235.438V53.6672Z" fill="black"/>
<path d="M339 40H361" stroke="black" stroke-width="3" stroke-linecap="round" stroke-linejoin="round"/>
<path d="M339 32H361" stroke="black" stroke-width="3" stroke-linecap="round" stroke-linejoin="round"/>
<path d="M339 48H361" stroke="black" stroke-width="3" stroke-linecap="round" stroke-linejoin="round"/>
</svg>
